<?xml version="1.0" standalone="no"?>
<!DOCTYPE svg PUBLIC "-//W3C//DTD SVG 20010904//EN"
 "http://www.w3.org/TR/2001/REC-SVG-20010904/DTD/svg10.dtd">
<svg version="1.0" xmlns="http://www.w3.org/2000/svg"
 width="672.000000pt" height="672.000000pt" viewBox="0 0 672.000000 672.000000"
 preserveAspectRatio="xMidYMid meet">
<metadata>
Created by potrace 1.14, written by Peter Selinger 2001-2017
</metadata>
<g transform="translate(0.000000,672.000000) scale(0.100000,-0.100000)"
fill="#000000" stroke="none">
<path d="M3869 6716 c-2 -2 -40 -7 -85 -10 -44 -4 -92 -9 -105 -11 -13 -2 -46
-6 -74 -9 -27 -3 -63 -8 -80 -11 -16 -3 -46 -8 -65 -11 -19 -3 -48 -8 -65 -11
-146 -24 -444 -114 -640 -193 -143 -58 -419 -192 -435 -211 -3 -3 -21 -14 -40
-24 -50 -25 -252 -164 -335 -229 -188 -149 -389 -351 -532 -536 -162 -209
-341 -519 -427 -740 -50 -130 -85 -230 -81 -230 2 0 -4 -20 -15 -45 -11 -25
-17 -45 -15 -45 3 0 0 -12 -5 -26 -11 -27 -54 -214 -64 -274 -3 -19 -7 -44
-10 -55 -3 -17 -17 -110 -31 -212 -27 -191 -27 -696 -1 -918 2 -16 7 -57 10
-90 8 -66 15 -115 23 -160 3 -16 7 -39 8 -50 4 -20 30 -149 40 -193 3 -13 13
-49 21 -80 8 -32 17 -64 19 -73 4 -22 45 -148 56 -174 4 -11 18 -49 30 -85 13
-36 27 -66 31 -68 4 -2 8 -10 8 -18 0 -8 4 -22 9 -32 5 -9 34 -69 65 -132 80
-165 211 -390 228 -390 4 0 8 -5 8 -11 0 -13 40 -68 150 -204 70 -87 269 -289
339 -345 24 -19 48 -40 55 -45 28 -27 178 -137 246 -181 41 -27 77 -52 80 -55
3 -3 12 -8 20 -12 8 -4 33 -18 55 -31 58 -36 78 -47 200 -108 97 -49 133 -66
210 -99 137 -58 386 -139 505 -164 14 -3 39 -10 55 -15 17 -4 48 -12 70 -16
47 -8 58 -11 105 -19 19 -4 46 -9 60 -11 14 -2 39 -6 55 -9 188 -30 322 -39
585 -39 206 0 338 6 405 18 11 2 42 7 68 10 27 4 58 9 70 12 12 2 39 6 62 9
39 5 62 10 115 20 78 17 117 25 138 30 12 3 30 7 40 9 9 2 44 11 77 20 67 19
65 18 120 34 59 17 297 111 312 124 7 6 13 7 13 4 0 -4 55 21 123 55 95 49
135 76 182 123 54 54 110 145 120 194 2 10 8 37 14 62 15 68 6 216 -17 277
-46 120 -144 254 -237 323 -141 105 -389 112 -585 17 -36 -17 -67 -32 -70 -32
-3 -1 -27 -12 -55 -24 -84 -39 -241 -89 -330 -107 -21 -4 -123 -22 -163 -29
-23 -4 -106 -12 -197 -20 -112 -10 -416 -4 -502 9 -21 3 -58 8 -83 11 -25 2
-56 7 -70 10 -13 2 -41 7 -61 10 -20 3 -51 10 -69 15 -18 5 -35 9 -39 8 -13
-3 -261 71 -276 82 -5 4 -21 11 -35 15 -37 11 -222 105 -242 123 -10 8 -18 12
-18 9 0 -8 -108 65 -200 136 -92 70 -244 227 -318 327 -35 47 -70 93 -78 103
-8 9 -14 21 -14 25 0 4 -11 23 -23 42 -115 171 -221 450 -272 715 -5 29 -7 40
-20 135 -4 25 -8 56 -11 70 -28 173 -22 701 10 845 3 11 8 42 12 69 7 57 64
282 93 371 21 62 116 266 159 340 31 55 133 203 156 228 12 13 32 37 45 53 25
32 128 139 188 195 57 53 209 169 222 169 6 0 11 5 11 10 0 6 4 10 10 10 5 0
33 15 62 33 151 95 416 197 599 231 13 3 24 5 24 6 0 1 9 3 20 5 11 1 38 6 60
9 89 15 92 15 260 32 51 5 349 5 395 0 19 -2 69 -7 110 -11 41 -4 77 -8 81
-10 7 -5 62 -15 104 -20 17 -2 80 -18 140 -35 61 -17 115 -32 120 -33 6 -1 15
-5 20 -8 6 -4 23 -9 38 -13 15 -4 81 -29 145 -57 178 -76 226 -90 338 -96 105
-6 188 6 232 33 12 8 22 12 22 9 0 -10 92 58 116 85 66 73 144 186 148 215 1
5 5 15 8 21 4 6 10 26 13 44 3 18 9 40 14 49 13 27 6 192 -12 265 -41 164
-142 272 -342 365 -126 59 -166 76 -250 108 -49 19 -94 35 -100 37 -5 1 -55
17 -110 34 -101 31 -289 80 -335 86 -14 2 -65 11 -115 19 -49 9 -117 19 -150
22 -33 4 -71 9 -85 12 -28 6 -586 14 -591 9z"/>
<path d="M4087 5024 c-1 -1 -42 -4 -90 -8 -49 -3 -98 -8 -110 -11 -20 -4 -57
-11 -112 -19 -48 -8 -181 -50 -259 -81 -102 -41 -285 -134 -306 -155 -3 -3
-27 -21 -55 -40 -27 -19 -55 -39 -61 -45 -6 -5 -30 -26 -54 -45 -136 -111
-288 -303 -389 -493 -64 -122 -136 -329 -156 -452 -6 -34 -17 -118 -21 -155
-9 -81 -3 -298 10 -400 14 -109 73 -327 105 -388 5 -9 26 -53 46 -97 21 -44
53 -104 71 -133 19 -29 34 -55 34 -58 0 -2 5 -10 10 -17 6 -7 24 -30 41 -52
68 -90 97 -123 169 -195 150 -151 369 -292 571 -369 66 -26 220 -68 274 -76
23 -3 52 -8 65 -11 90 -19 530 -23 530 -4 0 3 8 6 18 6 87 3 319 71 472 139
221 99 317 171 348 263 16 48 17 1109 1 1163 -16 51 -70 114 -123 141 -40 22
-49 22 -486 22 -245 -1 -456 -3 -470 -5 -64 -12 -130 -66 -157 -129 -23 -54
-20 -148 7 -200 25 -48 31 -56 75 -87 48 -33 85 -37 380 -38 l280 0 0 -355 0
-354 -58 -23 c-229 -92 -582 -124 -806 -72 -25 6 -50 12 -56 13 -54 11 -238
86 -243 98 -2 4 -8 8 -13 8 -43 0 -291 214 -365 315 -53 73 -118 181 -123 207
-1 4 -13 33 -27 64 -25 57 -51 144 -60 199 -3 17 -7 37 -10 45 -7 20 -17 151
-17 225 -1 322 111 610 320 832 71 74 172 158 204 168 11 4 19 10 19 14 0 15
205 110 290 134 102 30 164 40 247 41 35 1 63 3 63 6 0 9 167 -1 253 -15 30
-5 143 -33 237 -59 17 -5 93 -38 158 -68 51 -24 133 -27 182 -6 136 58 180
253 82 365 -26 29 -162 110 -162 96 0 -3 -8 1 -17 9 -19 15 -186 75 -237 84
-16 3 -33 7 -37 9 -4 3 -24 7 -45 10 -22 3 -52 9 -69 12 -53 11 -58 12 -150
18 -88 7 -215 11 -218 9z"/>
</g>
</svg>
