<svg width="37" height="74" viewBox="0 0 37 74" fill="none" xmlns="http://www.w3.org/2000/svg">
<path d="M23.6386 48.9266C22.1766 48.9266 20.8107 48.6669 19.5411 48.1475C18.2714 47.6089 17.1556 46.8682 16.1938 45.9256C15.2511 44.9637 14.5105 43.8576 13.9719 42.6072C13.4332 41.3567 13.1639 40.0005 13.1639 38.5385C13.1639 37.0764 13.4332 35.7202 13.9719 34.4698C14.5105 33.2194 15.2511 32.1228 16.1938 31.1802C17.1556 30.2183 18.2714 29.4777 19.5411 28.9583C20.8107 28.4197 22.1766 28.1503 23.6386 28.1503C24.5812 28.1503 25.495 28.2561 26.3799 28.4677C27.2648 28.6794 28.0632 28.9872 28.775 29.3911C29.0251 29.5258 29.2078 29.7086 29.3232 29.9394C29.4387 30.151 29.4964 30.3626 29.4964 30.5742C29.4964 30.9782 29.3617 31.3341 29.0924 31.6419C28.8423 31.9305 28.5249 32.0747 28.1401 32.0747C28.0055 32.0747 27.8612 32.0555 27.7073 32.017C27.5726 31.9786 27.4476 31.9305 27.3322 31.8727C26.7935 31.6034 26.2164 31.4014 25.6008 31.2668C24.9852 31.1129 24.3312 31.0359 23.6386 31.0359C22.2535 31.0359 21.0031 31.3726 19.8873 32.0459C18.7716 32.7 17.8867 33.5945 17.2326 34.7295C16.5978 35.8645 16.2803 37.1342 16.2803 38.5385C16.2803 39.9236 16.5978 41.1932 17.2326 42.3475C17.8867 43.4825 18.7716 44.3866 19.8873 45.0599C21.0031 45.714 22.2535 46.041 23.6386 46.041C24.3119 46.041 25.0237 45.9641 25.774 45.8102C26.5242 45.637 27.159 45.4158 27.6784 45.1465L27.4476 45.9256V40.443L27.9093 40.847H24.1292C23.7059 40.847 23.3501 40.7123 23.0615 40.443C22.7922 40.1736 22.6575 39.8274 22.6575 39.4042C22.6575 38.9809 22.7922 38.6347 23.0615 38.3653C23.3501 38.096 23.7059 37.9614 24.1292 37.9614H29.1212C29.5252 37.9614 29.8619 38.1056 30.1312 38.3942C30.4198 38.6635 30.564 39.0098 30.564 39.433V45.839C30.564 46.1468 30.4871 46.4065 30.3332 46.6181C30.1793 46.8298 30.0062 47.0029 29.8138 47.1376C28.9481 47.6762 27.9862 48.109 26.9282 48.4361C25.8894 48.7631 24.7929 48.9266 23.6386 48.9266Z" fill="#2DD4BF"/>
<path d="M33.2378 19.8206C34.2574 20.3305 34.8457 21.1344 35.0026 22.2326C35.1987 23.3307 34.9242 24.3308 34.179 25.2328C33.6692 25.9387 33.0025 26.3309 32.1789 26.4093C31.3945 26.4878 30.5905 26.3309 29.7669 25.9387C28.8257 25.5073 27.8256 25.174 26.7667 24.9386C25.747 24.7033 24.6685 24.5857 23.5312 24.5857C21.4134 24.5857 19.5113 24.919 17.8249 25.5858C16.1777 26.2525 14.7658 27.2133 13.5892 28.4683C12.4127 29.6841 11.5107 31.1352 10.8832 32.8216C10.2949 34.508 10.0007 36.3709 10.0007 38.4102C10.0007 40.8026 10.3341 42.8812 11.0008 44.646C11.7068 46.4108 12.6676 47.8815 13.8834 49.0581C15.0992 50.2346 16.5306 51.1171 18.1778 51.7053C19.825 52.2544 21.6094 52.5289 23.5312 52.5289C24.5901 52.5289 25.649 52.4309 26.7079 52.2348C27.7668 52.0387 28.7865 51.6857 29.7669 51.1759C30.5905 50.7837 31.3945 50.6464 32.1789 50.7641C33.0025 50.8817 33.6888 51.2935 34.2378 51.9995C35.0222 52.9799 35.2967 53.9996 35.0614 55.0585C34.8653 56.0782 34.2771 56.8234 33.2966 57.294C32.2769 57.8038 31.218 58.2352 30.1199 58.5882C29.061 58.902 27.9825 59.1373 26.8843 59.2941C25.7862 59.4902 24.6685 59.5883 23.5312 59.5883C20.7074 59.5883 18.0209 59.1373 15.4717 58.2352C12.9617 57.3332 10.7067 55.9998 8.70653 54.2349C6.7456 52.4701 5.19646 50.2739 4.05913 47.6462C2.92179 44.9794 2.35312 41.9007 2.35312 38.4102C2.35312 35.3904 2.86296 32.6059 3.88264 30.0567C4.94154 27.5075 6.41224 25.3112 8.29473 23.4679C10.2164 21.5855 12.4715 20.1344 15.0599 19.1147C17.6484 18.0558 20.4721 17.5263 23.5312 17.5263C25.2568 17.5263 26.9432 17.7224 28.5904 18.1146C30.2375 18.5068 31.7867 19.0755 33.2378 19.8206Z" fill="#181A1B"/>
</svg>
